<?xml version="1.0" encoding="utf-8"?>
<!-- Generator: Adobe Illustrator 22.1.0, SVG Export Plug-In . SVG Version: 6.00 Build 0)  -->
<svg version="1.1" id="Layer_1" xmlns="http://www.w3.org/2000/svg" xmlns:xlink="http://www.w3.org/1999/xlink" x="0px" y="0px"
	 viewBox="0 0 24 24" style="enable-background:new 0 0 24 24;" xml:space="preserve">
<style type="text/css">
	.st0{fill:#DDEEF6;}
</style>
<g transform="translate(234.563 -101.438)">
	<path class="st0" d="M-214,103.2c0-0.9-0.8-1.7-1.7-1.7h-13.7c-0.9,0-1.7,0.8-1.7,1.7v1.7h17.1L-214,103.2z"/>
	<path class="st0" d="M-212.3,106.6h-20.6c-0.9,0-1.7,0.8-1.7,1.7v10.3c0,0.9,0.8,1.7,1.7,1.7h1.7v3.4c0,0.9,0.8,1.7,1.7,1.7h13.7
		c0.9,0,1.7-0.8,1.7-1.7v-3.4h1.7c0.9,0,1.7-0.8,1.7-1.7v-10.3C-210.6,107.3-211.3,106.6-212.3,106.6z M-215.7,123.7h-13.7v-8.6
		h13.7V123.7z M-214,111.7h-3.4V110h3.4V111.7z"/>
	<rect x="-227.7" y="120.3" class="st0" width="5.1" height="1.7"/>
	<rect x="-227.7" y="116.9" class="st0" width="10.3" height="1.7"/>
</g>
</svg>
