<svg xmlns="http://www.w3.org/2000/svg" width="24" height="24" viewBox="0 0 24 24"><defs><style>.a{fill:#0099da;}</style></defs><g transform="translate(234.563 -101.438)"><path class="a" d="M-196.545,103.152a1.715,1.715,0,0,0-1.714-1.714h-13.714a1.715,1.715,0,0,0-1.714,1.714v1.714h17.143Z" transform="translate(-17.446)"/><path class="a" d="M-212.277,132.75h-20.571a1.715,1.715,0,0,0-1.714,1.714V144.75a1.715,1.715,0,0,0,1.714,1.714h1.714v3.429a1.715,1.715,0,0,0,1.714,1.714h13.714a1.715,1.715,0,0,0,1.714-1.714v-3.429h1.714a1.715,1.715,0,0,0,1.714-1.714V134.464A1.715,1.715,0,0,0-212.277,132.75Zm-3.429,17.143H-229.42v-8.571h13.714Zm1.714-12h-3.429v-1.714h3.429Z" transform="translate(0 -26.169)"/><rect class="a" width="5.143" height="1.714" transform="translate(-227.706 120.295)"/><rect class="a" width="10.286" height="1.714" transform="translate(-227.706 116.866)"/></g></svg>